<svg width="355" height="95" viewBox="0 0 355 95" fill="none" xmlns="http://www.w3.org/2000/svg">
<path d="M50.8109 17.5001L32.474 18.7757C14.4672 20.0284 0.5 35.001 0.5 53.0513C0.5 71.6679 15.3267 86.8979 33.9366 87.3973L316.46 94.9792C337.302 95.5385 354.5 78.7957 354.5 57.9465V13.0662C354.5 3.10995 343.48 -2.89832 335.111 2.49499C333.08 3.80391 330.715 4.5 328.299 4.5H256H226.074C213.147 4.5 200.343 7.0063 188.37 11.8802L168.13 20.1198C156.157 24.9937 143.353 27.5 130.426 27.5H120.81C114.286 27.5 107.777 26.8615 101.377 25.5935L65.0691 18.4005C60.3771 17.4709 55.5825 17.1682 50.8109 17.5001Z" fill="#F0F8FF"/>
</svg>
